<svg width="24" height="25" viewBox="0 0 24 25" fill="none" xmlns="http://www.w3.org/2000/svg">
<path d="M19 11.3334H5M19 11.3334C19.5304 11.3334 20.0391 11.5441 20.4142 11.9192C20.7893 12.2942 21 12.8029 21 13.3334V19.3334C21 19.8638 20.7893 20.3725 20.4142 20.7476C20.0391 21.1227 19.5304 21.3334 19 21.3334H5C4.46957 21.3334 3.96086 21.1227 3.58579 20.7476C3.21071 20.3725 3 19.8638 3 19.3334V13.3334C3 12.8029 3.21071 12.2942 3.58579 11.9192C3.96086 11.5441 4.46957 11.3334 5 11.3334M19 11.3334V9.33337C19 8.80294 18.7893 8.29423 18.4142 7.91916C18.0391 7.54409 17.5304 7.33337 17 7.33337M5 11.3334V9.33337C5 8.80294 5.21071 8.29423 5.58579 7.91916C5.96086 7.54409 6.46957 7.33337 7 7.33337M17 7.33337V5.33337C17 4.80294 16.7893 4.29423 16.4142 3.91916C16.0391 3.54409 15.5304 3.33337 15 3.33337H9C8.46957 3.33337 7.96086 3.54409 7.58579 3.91916C7.21071 4.29423 7 4.80294 7 5.33337V7.33337M17 7.33337H7" stroke="#1B5E20" stroke-width="2" stroke-linecap="round" stroke-linejoin="round"/>
</svg>
