<svg width="25" height="25" viewBox="0 0 25 25" fill="none" xmlns="http://www.w3.org/2000/svg">
<path d="M4.5 7.33337V17.3334C4.5 19.5434 8.082 21.3334 12.5 21.3334C16.918 21.3334 20.5 19.5434 20.5 17.3334V7.33337M4.5 7.33337C4.5 9.54337 8.082 11.3334 12.5 11.3334C16.918 11.3334 20.5 9.54337 20.5 7.33337M4.5 7.33337C4.5 5.12337 8.082 3.33337 12.5 3.33337C16.918 3.33337 20.5 5.12337 20.5 7.33337M20.5 12.3334C20.5 14.5434 16.918 16.3334 12.5 16.3334C8.082 16.3334 4.5 14.5434 4.5 12.3334" stroke="#0D47A1" stroke-width="2" stroke-linecap="round" stroke-linejoin="round"/>
</svg>
