<svg width="24" height="25" viewBox="0 0 24 25" fill="none" xmlns="http://www.w3.org/2000/svg">
<path d="M4 7.66663V17.6666C4 19.8766 7.582 21.6666 12 21.6666C16.418 21.6666 20 19.8766 20 17.6666V7.66663M4 7.66663C4 9.87663 7.582 11.6666 12 11.6666C16.418 11.6666 20 9.87663 20 7.66663M4 7.66663C4 5.45663 7.582 3.66663 12 3.66663C16.418 3.66663 20 5.45663 20 7.66663M20 12.6666C20 14.8766 16.418 16.6666 12 16.6666C7.582 16.6666 4 14.8766 4 12.6666" stroke="#880E4F" stroke-width="2" stroke-linecap="round" stroke-linejoin="round"/>
</svg>
