<svg width="25" height="25" viewBox="0 0 25 25" fill="none" xmlns="http://www.w3.org/2000/svg">
<path d="M19.5 11.6666H5.5M19.5 11.6666C20.0304 11.6666 20.5391 11.8773 20.9142 12.2524C21.2893 12.6275 21.5 13.1362 21.5 13.6666V19.6666C21.5 20.1971 21.2893 20.7058 20.9142 21.0808C20.5391 21.4559 20.0304 21.6666 19.5 21.6666H5.5C4.96957 21.6666 4.46086 21.4559 4.08579 21.0808C3.71071 20.7058 3.5 20.1971 3.5 19.6666V13.6666C3.5 13.1362 3.71071 12.6275 4.08579 12.2524C4.46086 11.8773 4.96957 11.6666 5.5 11.6666M19.5 11.6666V9.66663C19.5 9.13619 19.2893 8.62749 18.9142 8.25241C18.5391 7.87734 18.0304 7.66663 17.5 7.66663M5.5 11.6666V9.66663C5.5 9.13619 5.71071 8.62749 6.08579 8.25241C6.46086 7.87734 6.96957 7.66663 7.5 7.66663M17.5 7.66663V5.66663C17.5 5.13619 17.2893 4.62749 16.9142 4.25241C16.5391 3.87734 16.0304 3.66663 15.5 3.66663H9.5C8.96957 3.66663 8.46086 3.87734 8.08579 4.25241C7.71071 4.62749 7.5 5.13619 7.5 5.66663V7.66663M17.5 7.66663H7.5" stroke="#263238" stroke-width="2" stroke-linecap="round" stroke-linejoin="round"/>
</svg>
