<svg width="18" height="18" viewBox="0 0 18 18" fill="none" xmlns="http://www.w3.org/2000/svg">
<path d="M2.46967 2.46967C2.32902 2.61032 2.25 2.80109 2.25 3V4.9395C2.25004 5.1384 2.32909 5.32913 2.46975 5.46975L7.28025 10.2802C7.42091 10.4209 7.49996 10.6116 7.5 10.8105V15.75L10.5 12.75V10.8105C10.5 10.6116 10.5791 10.4209 10.7198 10.2802L15.5303 5.46975C15.6709 5.32913 15.75 5.1384 15.75 4.9395V3C15.75 2.80109 15.671 2.61032 15.5303 2.46967C15.3897 2.32902 15.1989 2.25 15 2.25H3C2.80109 2.25 2.61032 2.32902 2.46967 2.46967Z" stroke="#344767" stroke-width="1.5" stroke-linecap="round" stroke-linejoin="round"/>
</svg>
