<svg width="20" height="20" viewBox="0 0 20 20" fill="none" xmlns="http://www.w3.org/2000/svg">
<path d="M9.16683 4.16664H5.00016C4.55814 4.16664 4.13421 4.34223 3.82165 4.65479C3.50909 4.96736 3.3335 5.39128 3.3335 5.83331V15C3.3335 15.442 3.50909 15.8659 3.82165 16.1785C4.13421 16.491 4.55814 16.6666 5.00016 16.6666H14.1668C14.6089 16.6666 15.0328 16.491 15.3453 16.1785C15.6579 15.8659 15.8335 15.442 15.8335 15V10.8333M14.6552 2.98831C14.8089 2.82912 14.9928 2.70215 15.1962 2.6148C15.3995 2.52746 15.6182 2.48148 15.8395 2.47956C16.0608 2.47763 16.2803 2.5198 16.4851 2.6036C16.6899 2.6874 16.876 2.81116 17.0325 2.96765C17.189 3.12414 17.3127 3.31022 17.3965 3.51505C17.4803 3.71988 17.5225 3.93934 17.5206 4.16064C17.5187 4.38194 17.4727 4.60064 17.3853 4.80398C17.298 5.00732 17.171 5.19123 17.0118 5.34497L9.85683 12.5H7.50016V10.1433L14.6552 2.98831Z" stroke="#1565C0" stroke-width="1.5" stroke-linecap="round" stroke-linejoin="round"/>
</svg>
