<svg width="21" height="20" viewBox="0 0 21 20" fill="none" xmlns="http://www.w3.org/2000/svg">
<path d="M13.5 6C13.5 6.79565 13.1839 7.55871 12.6213 8.12132C12.0587 8.68393 11.2956 9 10.5 9C9.70435 9 8.94129 8.68393 8.37868 8.12132C7.81607 7.55871 7.5 6.79565 7.5 6C7.5 5.20435 7.81607 4.44129 8.37868 3.87868C8.94129 3.31607 9.70435 3 10.5 3C11.2956 3 12.0587 3.31607 12.6213 3.87868C13.1839 4.44129 13.5 5.20435 13.5 6ZM18.5 8C18.5 8.53043 18.2893 9.03914 17.9142 9.41421C17.5391 9.78929 17.0304 10 16.5 10C15.9696 10 15.4609 9.78929 15.0858 9.41421C14.7107 9.03914 14.5 8.53043 14.5 8C14.5 7.46957 14.7107 6.96086 15.0858 6.58579C15.4609 6.21071 15.9696 6 16.5 6C17.0304 6 17.5391 6.21071 17.9142 6.58579C18.2893 6.96086 18.5 7.46957 18.5 8ZM14.5 15C14.5 13.9391 14.0786 12.9217 13.3284 12.1716C12.5783 11.4214 11.5609 11 10.5 11C9.43913 11 8.42172 11.4214 7.67157 12.1716C6.92143 12.9217 6.5 13.9391 6.5 15V18H14.5V15ZM6.5 8C6.5 8.53043 6.28929 9.03914 5.91421 9.41421C5.53914 9.78929 5.03043 10 4.5 10C3.96957 10 3.46086 9.78929 3.08579 9.41421C2.71071 9.03914 2.5 8.53043 2.5 8C2.5 7.46957 2.71071 6.96086 3.08579 6.58579C3.46086 6.21071 3.96957 6 4.5 6C5.03043 6 5.53914 6.21071 5.91421 6.58579C6.28929 6.96086 6.5 7.46957 6.5 8ZM16.5 18V15C16.5014 13.9833 16.2433 12.983 15.75 12.094C16.1933 11.9805 16.6568 11.9698 17.1049 12.0627C17.553 12.1556 17.974 12.3496 18.3357 12.6299C18.6974 12.9102 18.9903 13.2695 19.1921 13.6802C19.3939 14.091 19.4992 14.5424 19.5 15V18H16.5ZM5.25 12.094C4.75675 12.983 4.4986 13.9833 4.5 15V18H1.5V15C1.49981 14.542 1.60446 14.0901 1.80595 13.6789C2.00743 13.2676 2.30039 12.9079 2.66238 12.6274C3.02437 12.3469 3.44578 12.153 3.89431 12.0605C4.34284 11.9681 4.80658 11.9795 5.25 12.094Z" fill="#F57F17"/>
</svg>
